<svg xmlns="http://www.w3.org/2000/svg" width="192" height="192" viewBox="0 0 192 192" version="1.1"><path d="M 82.268 37.347 C 78.841 39.631, 73.732 42.850, 70.916 44.500 C 68.100 46.150, 63.479 49.008, 60.648 50.852 C 57.817 52.696, 54.150 54.887, 52.500 55.720 C 50.850 56.554, 46.481 59.095, 42.791 61.368 L 36.082 65.500 36.041 95.219 C 35.995 128.246, 35.578 126.546, 42.500 121.530 C 44.150 120.335, 48.987 117.387, 53.250 114.979 L 61 110.602 61 96.338 L 61 82.075 66.980 78.014 C 70.269 75.780, 73.757 73.661, 74.730 73.304 C 75.704 72.948, 79.063 70.933, 82.195 68.828 C 85.327 66.723, 88.612 65, 89.495 65 C 91.499 65, 96.533 67.561, 100.594 70.648 C 102.296 71.942, 104.094 73, 104.589 73 C 105.084 73, 108.304 74.909, 111.744 77.242 L 118 81.484 118 95.675 L 118 109.866 109.250 115.088 C 104.438 117.960, 99.735 120.965, 98.801 121.764 C 97.285 123.061, 96.475 122.817, 91.301 119.502 C 88.110 117.459, 84.205 115.047, 82.622 114.143 C 81.039 113.239, 77.563 111.038, 74.896 109.250 C 72.230 107.463, 69.624 106, 69.105 106 C 67.847 106, 62.014 109.346, 62.006 110.073 C 62.003 110.388, 63.913 111.656, 66.250 112.890 C 68.588 114.125, 71.919 116.117, 73.653 117.318 C 75.387 118.518, 79.932 121.430, 83.752 123.789 L 90.699 128.079 90.227 132.991 C 89.967 135.692, 90.075 142.170, 90.466 147.386 C 91.240 157.705, 91.367 157.833, 97 153.952 C 98.375 153.005, 101.750 150.995, 104.500 149.486 C 107.250 147.976, 112.650 144.629, 116.500 142.049 C 120.350 139.468, 124.269 137.073, 125.208 136.726 C 126.148 136.379, 130.535 133.732, 134.958 130.844 L 143 125.592 143 95.386 L 143 65.179 136.250 60.840 C 132.537 58.453, 128.613 56.140, 127.530 55.701 C 126.446 55.261, 124.196 53.879, 122.530 52.629 C 116.501 48.107, 91.266 33.002, 89.900 33.097 C 89.130 33.151, 85.696 35.063, 82.268 37.347" stroke="none" fill="#28a1c1" fill-rule="evenodd"/><path d="M -0 96.005 L -0 192.010 96.250 191.755 L 192.500 191.500 192.755 95.750 L 193.010 -0 96.505 -0 L 0 0 -0 96.005 M 0.480 96.500 C 0.480 149.300, 0.602 170.753, 0.750 144.174 C 0.898 117.595, 0.898 74.395, 0.750 48.174 C 0.601 21.953, 0.480 43.700, 0.480 96.500 M 82.268 37.347 C 78.841 39.631, 73.732 42.850, 70.916 44.500 C 68.100 46.150, 63.479 49.008, 60.648 50.852 C 57.817 52.696, 54.150 54.887, 52.500 55.720 C 50.850 56.554, 46.481 59.095, 42.791 61.368 L 36.082 65.500 36.041 95.219 C 35.995 128.246, 35.578 126.546, 42.500 121.530 C 44.150 120.335, 48.987 117.387, 53.250 114.979 L 61 110.602 61 96.338 L 61 82.075 66.980 78.014 C 70.269 75.780, 73.757 73.661, 74.730 73.304 C 75.704 72.948, 79.063 70.933, 82.195 68.828 C 85.327 66.723, 88.612 65, 89.495 65 C 91.499 65, 96.533 67.561, 100.594 70.648 C 102.296 71.942, 104.094 73, 104.589 73 C 105.084 73, 108.304 74.909, 111.744 77.242 L 118 81.484 118 95.675 L 118 109.866 109.250 115.088 C 104.438 117.960, 99.735 120.965, 98.801 121.764 C 97.285 123.061, 96.475 122.817, 91.301 119.502 C 88.110 117.459, 84.205 115.047, 82.622 114.143 C 81.039 113.239, 77.563 111.038, 74.896 109.250 C 72.230 107.463, 69.624 106, 69.105 106 C 67.847 106, 62.014 109.346, 62.006 110.073 C 62.003 110.388, 63.913 111.656, 66.250 112.890 C 68.588 114.125, 71.919 116.117, 73.653 117.318 C 75.387 118.518, 79.932 121.430, 83.752 123.789 L 90.699 128.079 90.227 132.991 C 89.967 135.692, 90.075 142.170, 90.466 147.386 C 91.240 157.705, 91.367 157.833, 97 153.952 C 98.375 153.005, 101.750 150.995, 104.500 149.486 C 107.250 147.976, 112.650 144.629, 116.500 142.049 C 120.350 139.468, 124.269 137.073, 125.208 136.726 C 126.148 136.379, 130.535 133.732, 134.958 130.844 L 143 125.592 143 95.386 L 143 65.179 136.250 60.840 C 132.537 58.453, 128.613 56.140, 127.530 55.701 C 126.446 55.261, 124.196 53.879, 122.530 52.629 C 116.501 48.107, 91.266 33.002, 89.900 33.097 C 89.130 33.151, 85.696 35.063, 82.268 37.347" stroke="none" fill="#fafafa" fill-rule="evenodd"/></svg>