<?xml version="1.0" encoding="UTF-8"?>
<svg version="1.1" xmlns="http://www.w3.org/2000/svg" width="800" height="800">
<path d="M0 0 C25.62442407 21.09194858 41.42974226 51.06478224 45 84 C45.36449156 90.5898305 45.29456421 97.19567853 45.29052734 103.79321289 C45.29652303 105.76265718 45.30333094 107.73209914 45.31088257 109.70153809 C45.32844623 115.01807003 45.33323393 120.33453747 45.33451414 125.65109563 C45.33594205 128.98326415 45.34022374 132.3154166 45.34550858 135.6475811 C45.36397866 147.30274357 45.37218319 158.95786049 45.37060547 170.61303711 C45.36940566 181.42785482 45.39048437 192.24247245 45.4220928 203.05723959 C45.44836371 212.38258733 45.45896822 221.70787017 45.45769465 231.03325456 C45.45718809 236.58489977 45.46270013 242.13636703 45.48405075 247.68797493 C45.50361581 252.91748278 45.50343456 258.14664629 45.48901749 263.3761673 C45.48695057 265.27866312 45.49150126 267.18118156 45.5037384 269.08363914 C45.601262 285.31672555 43.7971996 301.51968352 37.8125 316.75 C37.37139893 317.90447632 37.37139893 317.90447632 36.92138672 319.08227539 C31.82662622 331.94079521 24.63244618 343.23877583 16 354 C15.47019531 354.68320312 14.94039062 355.36640625 14.39453125 356.0703125 C13.31900292 357.42655058 12.16963677 358.72403262 11 360 C10.34 360 9.68 360 9 360 C8.78988281 360.55171875 8.57976562 361.1034375 8.36328125 361.671875 C6.51348901 364.83083253 3.96778265 366.9386319 1.1875 369.25 C0.6085498 369.73307617 0.02959961 370.21615234 -0.56689453 370.71386719 C-22.11490201 388.31383649 -50.17102865 398.65345728 -77.97949219 398.39111328 C-80.00003481 398.37499972 -82.01857874 398.39109508 -84.0390625 398.41015625 C-96.42706385 398.43106925 -108.26999831 396.31735359 -120 392.3125 C-120.74636719 392.05976318 -121.49273437 391.80702637 -122.26171875 391.54663086 C-133.79374753 387.47542333 -144.28274033 381.40595168 -154 374 C-154.84175781 373.36191406 -155.68351562 372.72382813 -156.55078125 372.06640625 C-162.03467925 367.79745379 -167.51326108 363.33896866 -172 358 C-172 357.34 -172 356.68 -172 356 C-172.66 356 -173.32 356 -174 356 C-175.62563206 354.20535137 -177.09908449 352.42191168 -178.5625 350.5 C-179.00432617 349.92048584 -179.44615234 349.34097168 -179.90136719 348.74389648 C-194.78664569 328.70826912 -205.16905114 303.69558252 -205.14044189 278.52125549 C-205.14341302 277.69351889 -205.14638414 276.86578229 -205.1494453 276.01296276 C-205.15808282 273.25285344 -205.15963636 270.49278775 -205.16113281 267.73266602 C-205.16576463 265.7477662 -205.17078978 263.76286727 -205.17617798 261.77796936 C-205.18927216 256.39318411 -205.19574154 251.00841132 -205.20018864 245.62361264 C-205.20312522 242.2536555 -205.20723121 238.88370171 -205.21169281 235.51374626 C-205.22536218 224.95355164 -205.23503061 214.39336475 -205.2388947 203.83316189 C-205.24336903 191.67426411 -205.26089029 179.51547911 -205.2898953 167.3566156 C-205.31157518 157.93889024 -205.3216024 148.52119645 -205.32293582 139.10344642 C-205.32397967 133.48815088 -205.32979728 127.87296143 -205.34775543 122.25769234 C-205.36434461 116.96759356 -205.36633943 111.67767937 -205.35761642 106.38756371 C-205.35685172 104.45759203 -205.3611129 102.52760999 -205.37107468 100.59766388 C-205.53919421 65.96523315 -193.80783932 33.85034253 -169.375 8.9375 C-158.00586237 -2.30545067 -145.55195654 -10.4778393 -131 -17 C-130.39220703 -17.28214355 -129.78441406 -17.56428711 -129.15820312 -17.85498047 C-87.61298982 -36.99239279 -35.1849743 -28.32599866 0 0 Z " fill="#FEFEFE" transform="translate(480,102)"/>
<path d="M0 0 C5.43066565 4.98869224 8.04554209 11.75529046 8.45605469 19.00366211 C8.49008146 21.24048378 8.49830186 23.47780664 8.484375 25.71484375 C8.49712463 26.92080704 8.50987427 28.12677032 8.52301025 29.36927795 C8.55910541 33.20475955 8.56201653 37.03936444 8.5625 40.875 C8.59139149 45.90500895 8.63210729 50.93491048 8.671875 55.96484375 C8.67979065 57.17946793 8.6877063 58.3940921 8.69586182 59.64552307 C8.80081118 73.19431305 8.93314239 86.78863853 11.5625 100.125 C11.736604 101.04079834 11.91070801 101.95659668 12.09008789 102.90014648 C13.7240157 111.13741616 16.00732873 119.02967057 18.8125 126.9375 C19.19148438 128.02933594 19.57046875 129.12117187 19.9609375 130.24609375 C28.01866421 152.33724382 40.47958578 173.84923653 57.8125 189.9375 C62.8125 194.9375 62.8125 194.9375 64.5234375 196.82421875 C92.54139226 226.72077201 138.01498102 242.3118084 177.8828125 243.83984375 C225.66124627 245.11506885 269.50064248 226.1020226 304.5078125 194.1484375 C307.85968389 190.93291342 310.85622592 187.51511487 313.8125 183.9375 C314.49828125 183.13957031 315.1840625 182.34164062 315.890625 181.51953125 C335.55643578 158.24373773 348.36578802 130.01304879 354.0625 100.125 C354.22572754 99.29734131 354.38895508 98.46968262 354.55712891 97.61694336 C356.99904314 83.90815647 356.86268149 69.84303145 356.953125 55.96484375 C356.96281311 54.73946396 356.97250122 53.51408417 356.98248291 52.25157166 C357.0421922 44.62648516 357.0421922 44.62648516 357.06298828 37.0012207 C357.06632798 33.2385771 357.10084818 29.47725615 357.140625 25.71484375 C357.1335553 24.57925522 357.1264856 23.44366669 357.11920166 22.27366638 C357.23184954 14.86851941 358.51629226 9.08090762 362.8125 2.9375 C368.75763047 -2.81106622 374.43339225 -5.11641266 382.6875 -5.375 C389.92857268 -5.23161242 395.99458969 -3.72934044 401.44055176 1.34126282 C408.81526085 9.92160463 408.5225909 19.56452935 408.40625 30.23828125 C408.40453367 31.92245905 408.40460987 33.60663951 408.40637207 35.29081726 C408.40472452 38.81531487 408.3861518 42.33917223 408.35449219 45.86352539 C408.31514802 50.31698234 408.3106883 54.7695983 408.31755733 59.22319508 C408.33614473 76.96833799 408.34278873 94.47236649 404.8125 111.9375 C404.59899902 113.09338623 404.38549805 114.24927246 404.16552734 115.44018555 C395.86997443 157.84894741 374.52962493 195.93525635 344.8125 226.9375 C344.30992676 227.46730469 343.80735352 227.99710938 343.28955078 228.54296875 C335.37595512 236.8486684 327.01337715 244.09786443 317.8125 250.9375 C317.25481934 251.3612793 316.69713867 251.78505859 316.12255859 252.22167969 C286.85137297 274.44625658 245.10921934 293.9375 207.8125 293.9375 C207.8125 319.0175 207.8125 344.0975 207.8125 369.9375 C213.6390625 369.89109375 219.465625 369.8446875 225.46875 369.796875 C229.16928875 369.77642666 232.86975743 369.75717021 236.5703125 369.7421875 C242.4386245 369.71831509 248.30668585 369.69013334 254.17480469 369.63574219 C258.90808349 369.59214644 263.64109334 369.56833387 268.3745575 369.55799103 C270.17661266 369.55062425 271.97865381 369.53623867 273.78059387 369.51457977 C276.31303228 369.48536267 278.84437216 369.48155154 281.37695312 369.48339844 C282.11495148 369.46901733 282.85294983 369.45463623 283.61331177 369.43981934 C290.4055701 369.49310113 295.45267203 371.89946676 300.5625 376.3125 C306.87744532 383.67993621 308.17244811 388.87191683 308.09375 398.4140625 C307.51602578 405.65166314 304.2749729 410.25538037 298.8125 414.9375 C292.79672174 419.26886035 288.65634777 420.08630975 281.38130188 420.08467102 C280.51050293 420.08834771 279.63970397 420.0920244 278.74251717 420.0958125 C275.81312077 420.10686012 272.88375983 420.11069502 269.9543457 420.11450195 C267.85853462 420.1207658 265.76272464 420.12741253 263.66691589 420.13441467 C257.96426278 420.15183188 252.26161806 420.16237847 246.55894494 420.1706202 C242.99677081 420.17576898 239.43459928 420.18184478 235.87242699 420.18813133 C224.72917911 420.20718568 213.58593788 420.22141614 202.44267684 420.2297433 C189.57614391 420.23951671 176.70978297 420.26583805 163.84331065 420.30624419 C153.90095539 420.33639675 143.95864946 420.35121138 134.01624936 420.35452431 C128.07694606 420.35687582 122.13782645 420.36584947 116.19857216 420.39098549 C110.60975521 420.41425592 105.02124304 420.41850342 99.43239021 420.40822411 C97.38295224 420.40772839 95.33349931 420.41405945 93.28410721 420.42778015 C90.4819123 420.44548865 87.68081236 420.4383979 84.87861633 420.42524719 C83.66764557 420.44170106 83.66764557 420.44170106 82.43221074 420.45848733 C75.42805968 420.37935646 70.3479154 418.12717693 65.0625 413.5625 C58.74755468 406.19506379 57.45255189 401.00308317 57.53125 391.4609375 C58.10897422 384.22333686 61.3500271 379.61961963 66.8125 374.9375 C72.64882753 370.73534418 76.61886549 369.79039116 83.68041992 369.82397461 C84.48065079 369.82382858 85.28088165 369.82368256 86.10536194 369.8235321 C88.75125842 369.82422895 91.39708456 369.83201071 94.04296875 369.83984375 C95.87714093 369.84170874 97.7113136 369.84313226 99.54548645 369.84413147 C104.37386449 369.84795028 109.20221246 369.85777516 114.03057861 369.86883545 C119.82337574 369.88086136 125.61618292 369.88545484 131.40898895 369.89128876 C140.21018021 369.90098722 149.0113055 369.92014825 157.8125 369.9375 C157.8125 344.8575 157.8125 319.7775 157.8125 293.9375 C153.8525 293.6075 149.8925 293.2775 145.8125 292.9375 C142.12778241 292.30011497 138.51879863 291.62212606 134.875 290.8125 C133.39737183 290.48536011 133.39737183 290.48536011 131.88989258 290.15161133 C115.15463119 286.30259486 99.24684337 280.42558121 83.8125 272.9375 C83.03664551 272.56254395 82.26079102 272.18758789 81.46142578 271.80126953 C69.42684733 265.91033724 58.49758264 259.00982831 47.8125 250.9375 C46.39710938 249.87208984 46.39710938 249.87208984 44.953125 248.78515625 C38.23404339 243.5532599 31.98153407 237.7984627 25.8125 231.9375 C25.27689453 231.43057617 24.74128906 230.92365234 24.18945312 230.40136719 C15.89074108 222.49242818 8.64713256 214.13164696 1.8125 204.9375 C1.3887207 204.37981934 0.96494141 203.82213867 0.52832031 203.24755859 C-17.0278246 180.12499571 -29.53017512 152.69604726 -36.4375 124.5625 C-36.67162598 123.62019531 -36.90575195 122.67789063 -37.14697266 121.70703125 C-37.90440959 118.46226915 -38.55822333 115.20960612 -39.1875 111.9375 C-39.32027344 111.28901093 -39.45304688 110.64052185 -39.58984375 109.97238159 C-43.08577253 92.36230404 -42.71602356 74.45028891 -42.68847656 56.57739258 C-42.68252582 52.11136037 -42.71347649 47.64639482 -42.75359344 43.18056965 C-42.7795306 39.69990839 -42.78234378 36.21950455 -42.77870178 32.73875999 C-42.7803801 31.09188288 -42.78989663 29.4449922 -42.80784607 27.79821205 C-42.89580276 18.75334457 -42.91305035 10.48462563 -37.1875 2.9375 C-26.5331769 -7.26916587 -12.19297784 -7.8895739 0 0 Z " fill="#FEFEFE" transform="translate(217.1875,305.0625)"/>
</svg>
