<svg xmlns="http://www.w3.org/2000/svg" width="632" height="395" viewBox="0 0 632 395" version="1.1"><path d="M 165.166 4.476 C 154.116 6.976, 143.840 14.848, 139.680 24 C 137.317 29.198, 136.290 43.133, 137.800 49.500 C 138.528 52.569, 138.627 51.346, 138.226 44.249 C 137.481 31.056, 139.623 23.540, 145.952 17.144 C 155.572 7.423, 165.828 3.720, 179.564 5.009 C 183.929 5.418, 188.714 6.238, 190.197 6.832 C 193.853 8.294, 255.242 38.978, 256.500 39.972 C 257.050 40.407, 275.725 49.985, 298 61.258 C 351.916 88.542, 381.476 103.608, 411 118.851 C 424.475 125.808, 435.950 131.675, 436.500 131.890 C 438.619 132.715, 463.166 145.060, 477 152.258 C 484.975 156.407, 494.849 161.534, 498.942 163.651 C 507.829 168.247, 517.879 177.747, 521.180 184.670 C 523.082 188.659, 523.483 191.154, 523.486 199 C 523.490 207.353, 523.170 209.108, 520.836 213.538 C 519.376 216.309, 515.421 221.149, 512.048 224.294 C 506.528 229.440, 500.690 232.621, 453.707 256.082 C 424.993 270.421, 401.050 282.592, 400.500 283.130 C 398.932 284.664, 402.426 282.971, 455 256.716 C 482.225 243.121, 506.739 230.299, 509.476 228.225 C 520.381 219.958, 525.512 209.422, 524.825 196.706 C 524.310 187.155, 520.999 180.198, 513.434 172.767 C 506.934 166.383, 499.887 162.464, 446 135.269 C 391.928 107.980, 282.205 52.060, 266.500 43.788 C 243.691 31.773, 196.715 8.253, 191.132 6.052 C 184.343 3.376, 173.054 2.691, 165.166 4.476 M 139.086 54.865 C 139.005 56.150, 146.295 81.471, 151.505 98 C 152.805 102.125, 157.309 117.200, 161.513 131.500 C 165.718 145.800, 170.135 160.635, 171.329 164.468 C 174.369 174.225, 175.614 174.825, 194.052 175.415 L 208.500 175.877 195.500 174.952 C 180.020 173.850, 175.742 172.806, 174.220 169.762 C 173.598 168.518, 170.994 160.300, 168.433 151.500 C 165.872 142.700, 161.552 127.850, 158.833 118.500 C 156.114 109.150, 153.060 99.025, 152.046 96 C 151.032 92.975, 149.708 88.700, 149.103 86.500 C 147.941 82.274, 141.351 60.245, 139.980 56 C 139.535 54.625, 139.133 54.114, 139.086 54.865 M 213.784 176.738 C 216.689 176.941, 221.189 176.939, 223.784 176.734 C 226.378 176.528, 224 176.363, 218.500 176.365 C 213 176.368, 210.878 176.536, 213.784 176.738 M 233.776 177.733 C 236.128 177.945, 239.728 177.942, 241.776 177.727 C 243.824 177.512, 241.900 177.339, 237.500 177.343 C 233.100 177.346, 231.424 177.522, 233.776 177.733 M 249.083 178.378 C 249.313 178.586, 256.025 178.989, 264 179.274 C 273.422 179.610, 276.049 179.521, 271.500 179.020 C 264.025 178.196, 248.390 177.749, 249.083 178.378 M 282.083 180.379 C 282.313 180.587, 289.475 180.992, 298 181.278 C 309.232 181.654, 311.159 181.577, 305 180.998 C 295.917 180.144, 281.393 179.751, 282.083 180.379 M 324.500 183.053 C 329.450 183.457, 336.875 183.763, 341 183.732 L 348.500 183.676 339 182.950 C 333.775 182.551, 326.350 182.245, 322.500 182.270 L 315.500 182.317 324.500 183.053 M 359 185.050 C 364.225 185.449, 371.650 185.755, 375.500 185.730 L 382.500 185.683 373.500 184.947 C 368.550 184.543, 361.125 184.237, 357 184.268 L 349.500 184.324 359 185.050 M 387.728 186.722 C 389.503 186.943, 392.653 186.946, 394.728 186.730 C 396.802 186.513, 395.350 186.333, 391.500 186.328 C 387.650 186.324, 385.952 186.501, 387.728 186.722 M 405 187.689 C 418.611 188.324, 422 190.218, 422 197.189 C 422 203.375, 418.876 205.568, 409 206.312 C 405.279 206.592, 405.569 206.681, 410.673 206.825 C 415.938 206.974, 417.282 206.634, 419.805 204.511 C 423.382 201.500, 424.288 197.625, 422.445 193.214 C 420.533 188.637, 416.009 186.952, 406.282 187.193 L 398.500 187.385 405 187.689 M 393.728 207.722 C 395.503 207.943, 398.653 207.946, 400.728 207.730 C 402.802 207.513, 401.350 207.333, 397.500 207.328 C 393.650 207.324, 391.952 207.501, 393.728 207.722 M 378.776 208.733 C 381.128 208.945, 384.728 208.942, 386.776 208.727 C 388.824 208.512, 386.900 208.339, 382.500 208.343 C 378.100 208.346, 376.424 208.522, 378.776 208.733 M 349 210 L 340.500 210.627 347.500 210.696 C 351.350 210.734, 359 210.442, 364.500 210.047 L 374.500 209.330 366 209.351 C 361.325 209.363, 353.675 209.655, 349 210 M 329.750 211.723 C 331.538 211.945, 334.462 211.945, 336.250 211.723 C 338.038 211.502, 336.575 211.320, 333 211.320 C 329.425 211.320, 327.962 211.502, 329.750 211.723 M 313.250 212.728 C 315.313 212.944, 318.688 212.944, 320.750 212.728 C 322.813 212.513, 321.125 212.336, 317 212.336 C 312.875 212.336, 311.188 212.513, 313.250 212.728 M 267.500 214.871 C 253.200 215.743, 242.625 216.626, 244 216.834 C 246.449 217.203, 304.048 214.213, 307 213.562 C 310.570 212.776, 291.530 213.407, 267.500 214.871 M 222.750 217.740 C 226.188 217.936, 231.813 217.936, 235.250 217.740 C 238.688 217.545, 235.875 217.385, 229 217.385 C 222.125 217.385, 219.313 217.545, 222.750 217.740 M 188 218.995 C 182.225 219.354, 176.773 219.977, 175.885 220.379 C 174.005 221.231, 172.574 224.093, 170.998 230.158 C 169.827 234.668, 157.014 278.398, 152 295 C 142.262 327.241, 139.654 336.086, 138.435 341 C 136.969 346.911, 136.709 359.918, 137.975 364 C 138.404 365.384, 138.545 362.484, 138.290 357.500 C 137.750 346.949, 138.413 343.734, 146.948 315.500 C 153.410 294.126, 163.759 259.060, 170.115 237 C 172.336 229.295, 174.723 222.969, 175.676 222.263 C 177.954 220.576, 180.899 220.205, 200 219.194 C 210.042 218.663, 212.978 218.325, 207.500 218.331 C 202.550 218.336, 193.775 218.635, 188 218.995 M 386.750 289.560 C 380.837 292.562, 376 295.226, 376 295.480 C 376 295.946, 397.953 285.380, 398.851 284.482 C 400.304 283.029, 396.329 284.697, 386.750 289.560 M 340.471 312.617 C 322.337 321.757, 307.050 329.678, 306.500 330.221 C 305.950 330.764, 308.875 329.549, 313 327.520 C 326.904 320.681, 374.496 296.734, 374.917 296.365 C 377.146 294.411, 368.523 298.479, 340.471 312.617 M 275.500 345.115 C 261.200 352.266, 249.050 358.584, 248.500 359.156 C 247.627 360.065, 301.831 333.402, 302.917 332.389 C 304.644 330.777, 298.103 333.814, 275.500 345.115 M 242.750 361.572 C 238.873 363.675, 239.312 364.401, 243.250 362.399 C 247.020 360.481, 247.687 359.985, 246.417 360.040 C 245.912 360.062, 244.262 360.751, 242.750 361.572 M 229.390 368.288 C 224.930 370.605, 213.470 376.325, 203.925 381 L 186.568 389.500 178.534 389.500 C 174.115 389.500, 168.475 389.179, 166 388.787 C 162.599 388.248, 162.088 388.316, 163.908 389.063 C 168.117 390.792, 180.499 391.364, 185.651 390.066 C 191.887 388.496, 241.675 363.993, 238.500 364.056 C 237.950 364.067, 233.851 365.972, 229.390 368.288 M 139.009 367.816 C 138.970 373.379, 151.168 385.363, 159 387.453 C 160.375 387.820, 159.028 386.723, 156.007 385.015 C 148.962 381.031, 145.500 377.713, 141.909 371.500 C 140.319 368.750, 139.015 367.092, 139.009 367.816" stroke="none" fill="#257b3e" fill-rule="evenodd"/><path d="M 164.951 5.919 C 152.674 9.070, 142.400 17.950, 139.637 27.798 C 136.525 38.888, 137.535 48.017, 144.360 70.500 C 146.364 77.100, 148.498 84.300, 149.103 86.500 C 149.708 88.700, 151.032 92.975, 152.046 96 C 153.060 99.025, 156.114 109.150, 158.833 118.500 C 175.646 176.317, 173.918 171.512, 178.405 172.914 C 181.392 173.847, 195.805 174.852, 237 176.999 C 247.725 177.558, 263.700 178.461, 272.500 179.006 C 297.036 180.525, 319.603 181.867, 340.500 183.051 C 396.208 186.205, 416.655 187.733, 418.835 188.906 C 421.765 190.481, 423.983 195.637, 423.290 199.261 C 423 200.780, 421.516 203.071, 419.992 204.353 C 416.879 206.972, 420.133 206.643, 364 210.025 C 346.125 211.102, 321.150 212.649, 308.500 213.463 C 278.894 215.369, 237.886 217.618, 207.500 219.002 C 180.719 220.223, 178.064 220.495, 175.676 222.263 C 174.723 222.969, 172.336 229.295, 170.115 237 C 163.759 259.060, 153.410 294.126, 146.948 315.500 C 138.389 343.812, 137.738 346.971, 138.349 357.245 C 138.767 364.262, 139.413 366.989, 141.623 371.048 C 150.827 387.959, 175.346 394.947, 193.856 385.936 C 203.314 381.331, 258.715 353.632, 263.500 351.115 C 265.700 349.958, 285.500 340.042, 307.500 329.078 C 329.500 318.115, 351.550 307.094, 356.500 304.586 C 361.450 302.078, 377.875 293.876, 393 286.360 C 502.502 231.943, 505.546 230.356, 512.008 224.332 C 515.403 221.166, 519.376 216.309, 520.836 213.538 C 523.170 209.108, 523.490 207.353, 523.486 199 C 523.483 191.154, 523.082 188.659, 521.180 184.670 C 517.879 177.747, 507.829 168.247, 498.942 163.651 C 494.849 161.534, 484.975 156.407, 477 152.258 C 463.166 145.060, 438.619 132.715, 436.500 131.890 C 435.950 131.675, 424.475 125.808, 411 118.851 C 381.476 103.608, 351.916 88.542, 298 61.258 C 275.725 49.985, 257.050 40.407, 256.500 39.972 C 254.367 38.285, 191.305 7.214, 188 6.221 C 181.592 4.296, 171.774 4.167, 164.951 5.919" stroke="none" fill="#1cab44" fill-rule="evenodd"/></svg>