<?xml version="1.0" standalone="no"?>
<!DOCTYPE svg PUBLIC "-//W3C//DTD SVG 20010904//EN"
 "http://www.w3.org/TR/2001/REC-SVG-20010904/DTD/svg10.dtd">
<svg version="1.0" xmlns="http://www.w3.org/2000/svg"
 width="632.000000pt" height="395.000000pt" viewBox="0 0 632.000000 395.000000"
 preserveAspectRatio="xMidYMid meet">

<g transform="translate(0.000000,395.000000) scale(0.100000,-0.100000)"
fill="#000000" stroke="none">
<path d="M1653 3759 c-118 -15 -202 -69 -248 -159 -62 -122 -53 -196 68 -600
61 -204 166 -559 207 -701 11 -36 29 -74 40 -84 23 -20 65 -24 965 -75 546
-30 848 -49 996 -60 74 -5 162 -10 196 -10 105 0 143 -24 143 -89 0 -47 -20
-79 -54 -90 -30 -9 -171 -20 -556 -41 -102 -6 -324 -20 -495 -30 -565 -36
-618 -39 -880 -50 -143 -6 -274 -15 -291 -21 -33 -10 -46 -30 -64 -101 -13
-51 -101 -351 -211 -718 -96 -323 -103 -354 -97 -446 9 -139 82 -236 206 -274
77 -24 210 -27 270 -6 64 23 2901 1444 2959 1483 92 61 144 157 146 268 3 124
-70 237 -202 314 -36 21 -203 109 -371 194 -168 85 -593 301 -945 480 -839
426 -1073 545 -1230 627 -371 194 -410 207 -552 189z"/>
</g>
</svg>
